<svg xmlns="http://www.w3.org/2000/svg" xmlns:xlink="http://www.w3.org/1999/xlink" viewBox="0 0 198.26 200.68"><defs><style>.cls-1,.cls-2{fill:none;}.cls-2{clip-rule:evenodd;}.cls-3{clip-path:url(#clip-path);}.cls-4{clip-path:url(#clip-path-2);}.cls-5{clip-path:url(#clip-path-3);}.cls-6{clip-path:url(#clip-path-4);}.cls-7{clip-path:url(#clip-path-5);}.cls-8{clip-path:url(#clip-path-6);}.cls-11,.cls-9{fill:#ff1744;}.cls-9{opacity:0.55;}.cls-10{clip-path:url(#clip-path-7);}.cls-12{clip-path:url(#clip-path-9);}.cls-13{clip-path:url(#clip-path-10);}.cls-14{fill:#253238;}.cls-15{fill:#b1f93e;}.cls-16{clip-path:url(#clip-path-11);}.cls-17{clip-path:url(#clip-path-12);}</style><clipPath id="clip-path"><ellipse class="cls-1" cx="-168.81" cy="296.75" rx="19.72" ry="19.73"/></clipPath><clipPath id="clip-path-2"><ellipse class="cls-1" cx="-169.04" cy="296.54" rx="29.5" ry="29.53"/></clipPath><clipPath id="clip-path-3"><circle class="cls-1" cx="111.26" cy="326.07" r="87"/></clipPath><clipPath id="clip-path-4"><circle class="cls-1" cx="111.26" cy="326.07" r="58.99" transform="translate(-197.98 174.17) rotate(-45)"/></clipPath><clipPath id="clip-path-5"><circle class="cls-1" cx="97.74" cy="104.78" r="87"/></clipPath><clipPath id="clip-path-6"><rect class="cls-1" x="-622.26" y="-356.22" width="1440" height="1024"/></clipPath><clipPath id="clip-path-7"><circle class="cls-1" cx="97.74" cy="104.78" r="58.99" transform="translate(-45.46 99.8) rotate(-45)"/></clipPath><clipPath id="clip-path-9"><circle class="cls-1" cx="305.48" cy="206.33" r="87"/></clipPath><clipPath id="clip-path-10"><circle class="cls-1" cx="305.48" cy="206.33" r="58.99" transform="translate(-56.42 276.44) rotate(-45)"/></clipPath><clipPath id="clip-path-11"><path class="cls-2" d="M241.25,571.21H368.34A12.22,12.22,0,0,0,380.56,559V522.33a12.23,12.23,0,0,0-12.22-12.23H255.91a14.66,14.66,0,0,0-14.66,14.67Z"/></clipPath><clipPath id="clip-path-12"><path class="cls-2" d="M40.18,510.1H167.27a12.24,12.24,0,0,1,12.23,12.23V559a12.23,12.23,0,0,1-12.23,12.22H54.85a14.67,14.67,0,0,1-14.67-14.67Z"/></clipPath></defs><title>signal_error</title><g id="Layer_1" data-name="Layer 1"><g class="cls-7"><g class="cls-8"><rect class="cls-9" x="5.74" y="12.78" width="184" height="184"/></g></g><g class="cls-10"><g class="cls-8"><rect class="cls-11" x="33.74" y="40.78" width="128" height="128"/></g></g><circle class="cls-14" cx="99.21" cy="132.58" r="6.67"/><path class="cls-14" d="M53.77,97.26a4.46,4.46,0,0,0,6-.47,53.15,53.15,0,0,1,78.65-.17,4.47,4.47,0,0,0,6,.45h0a4.5,4.5,0,0,0,.53-6.59,62.13,62.13,0,0,0-91.82.2,4.49,4.49,0,0,0,.56,6.58Z"/><path class="cls-14" d="M68.55,109.11a4.51,4.51,0,0,0,6-.44,34.28,34.28,0,0,1,48.86-.47,4.51,4.51,0,0,0,6,.37h0a4.52,4.52,0,0,0,.36-6.77,43.26,43.26,0,0,0-61.6.57,4.52,4.52,0,0,0,.42,6.74Z"/><path class="cls-14" d="M83.4,121.31a4.45,4.45,0,0,0,5.7-.11,15.18,15.18,0,0,1,19.08-.91,4.49,4.49,0,0,0,5.44-.05l.07,0a4.44,4.44,0,0,0,0-7,24.18,24.18,0,0,0-30.46,1.25,4.48,4.48,0,0,0,.19,6.91Z"/><path class="cls-15" d="M436.92,147.42A641.49,641.49,0,0,0,410.61,31Q406,16.91,400.69,3c-2.83-7.44-5.53-15.47-11.05-21.41-12.25-13.17-34.53-9.75-50.6-9.7l-150.17.41c-2.57,0-2.58,4,0,4,56.74-.15,113.53-1.09,170.26-.45,12.88.14,25,2.32,31.81,14.47,6,10.73,9.59,23.33,13.53,34.93A635.18,635.18,0,0,1,424.87,100,644.83,644.83,0,0,1,438,254.43a636.42,636.42,0,0,1-7.5,77.45q-3.06,19.13-7.29,38.05-1.08,4.83-2.24,9.66c-.94,3.91-1.54,4.24-5.54,5.2q-10.33,2.49-20.67,5.07-90.09,22.56-178.11,52.49c-2.43.83-1.39,4.69,1.06,3.86Q318.45,412,422.11,387.3a2,2,0,0,0,1.4-1.4A645.09,645.09,0,0,0,436.92,147.42Z"/></g></svg>